HIERARCHY
ROOT joint_Root
{
	OFFSET 0.0 0.0 0.0
	CHANNELS 6 Xposition Yposition Zposition Zrotation Xrotation Yrotation 
	JOINT Hips
	{
		OFFSET -0.726466 93.3139 -2.00062
		CHANNELS 6 Xposition Yposition Zposition Zrotation Xrotation Yrotation 
		JOINT Spine
		{
			OFFSET 15.7357 0.0 0.0
			CHANNELS 6 Xposition Yposition Zposition Zrotation Xrotation Yrotation 
			JOINT Chest
			{
				OFFSET 8.98455 -0.406207 0.0
				CHANNELS 6 Xposition Yposition Zposition Zrotation Xrotation Yrotation 
				JOINT Neck
				{
					OFFSET 16.3773 0.0 0.0
					CHANNELS 6 Xposition Yposition Zposition Zrotation Xrotation Yrotation 
					JOINT Head
					{
						OFFSET 6.45672 0.0 0.0
						CHANNELS 6 Xposition Yposition Zposition Zrotation Xrotation Yrotation 
						End Site
						{
							OFFSET 0.0 0.0 0.0
						}
					}
				}
				JOINT Shoulder_L
				{
					OFFSET 12.9942 -0.242716 4.98039
					CHANNELS 6 Xposition Yposition Zposition Zrotation Xrotation Yrotation 
					JOINT UpperArm_L
					{
						OFFSET 5.34809 0.0 0.0
						CHANNELS 6 Xposition Yposition Zposition Zrotation Xrotation Yrotation 
						JOINT LowerArm_L
						{
							OFFSET 24.3286 1.87007e-05 0.0
							CHANNELS 6 Xposition Yposition Zposition Zrotation Xrotation Yrotation 
							JOINT Hand_L
							{
								OFFSET 22.2916 0.0 0.0
								CHANNELS 6 Xposition Yposition Zposition Zrotation Xrotation Yrotation 
								End Site
								{
									OFFSET 0.0 0.0 0.0
								}
							}
						}
					}
				}
				JOINT Shoulder_R
				{
					OFFSET 12.9945 -0.242716 -4.98039
					CHANNELS 6 Xposition Yposition Zposition Zrotation Xrotation Yrotation 
					JOINT UpperArm_R
					{
						OFFSET -5.34813 0.0 0.0
						CHANNELS 6 Xposition Yposition Zposition Zrotation Xrotation Yrotation 
						JOINT LowerArm_R
						{
							OFFSET -24.3289 0.000322201 0.0
							CHANNELS 6 Xposition Yposition Zposition Zrotation Xrotation Yrotation 
							JOINT Hand_R
							{
								OFFSET -22.2915 -0.000108084 0.0
								CHANNELS 6 Xposition Yposition Zposition Zrotation Xrotation Yrotation 
								End Site
								{
									OFFSET 0.0 0.0 0.0
								}
							}
						}
					}
				}
			}
		}
		JOINT UpperLeg_L
		{
			OFFSET -2.19248 -6.46944 0.0
			CHANNELS 6 Xposition Yposition Zposition Zrotation Xrotation Yrotation 
			JOINT LowerLeg_L
			{
				OFFSET 39.0811 0.0 -1.23785e-05
				CHANNELS 6 Xposition Yposition Zposition Zrotation Xrotation Yrotation 
				JOINT Foot_L
				{
					OFFSET 40.9854 0.0 -1.26872e-05
					CHANNELS 6 Xposition Yposition Zposition Zrotation Xrotation Yrotation 
					JOINT Toes_L
					{
						OFFSET 11.7543 0.0 0.0
						CHANNELS 6 Xposition Yposition Zposition Zrotation Xrotation Yrotation 
						End Site
						{
							OFFSET 0.0 0.0 0.0
						}
					}
				}
			}
		}
		JOINT UpperLeg_R
		{
			OFFSET -2.19251 6.46944 0.0
			CHANNELS 6 Xposition Yposition Zposition Zrotation Xrotation Yrotation 
			JOINT LowerLeg_R
			{
				OFFSET -39.0811 -0.00228153 -0.0401928
				CHANNELS 6 Xposition Yposition Zposition Zrotation Xrotation Yrotation 
				JOINT Foot_R
				{
					OFFSET -40.9854 0.0 0.0
					CHANNELS 6 Xposition Yposition Zposition Zrotation Xrotation Yrotation 
					JOINT Toes_R
					{
						OFFSET -11.7543 0.0 0.0
						CHANNELS 6 Xposition Yposition Zposition Zrotation Xrotation Yrotation 
						End Site
						{
							OFFSET 0.0 0.0 0.0
						}
					}
				}
			}
		}
	}
}
MOTION
Frames:	6
Frame Time:	0.0333333
0.000000 0.000000 0.000000 0.000000 0.000000 -0.000000 0.144960 92.176400 -3.310700 87.288300 -3.874350 3.858950 15.735700 0.000005 -0.000001 94.375400 85.158000 -96.145700 8.984550 -0.406207 -0.000000 1.905090 0.828819 -3.550930 16.377300 -0.000001 -0.000001 2.763010 -2.796890 0.483939 6.456720 -0.000001 -0.000000 -3.778100 -2.311630 -2.308700 12.994200 -0.242716 4.980390 -87.823200 -5.918410 -69.764300 5.348090 -0.000007 -0.000001 12.775700 73.131300 -63.082800 24.328600 0.000019 0.000005 17.080900 0.931049 -86.973000 22.291600 -0.000001 0.000005 41.257700 5.546870 -33.682100 12.994500 -0.242716 -4.980390 92.165800 -4.646500 -64.974900 -5.348130 -0.000001 -0.000004 -57.895600 -47.988400 -108.105000 -24.328900 0.000322 -0.000009 1.325520 1.639510 -38.986700 -22.291500 -0.000108 -0.000004 20.858600 5.327320 -0.707666 -2.192480 -6.469440 -0.000000 -168.617000 -17.722500 -3.238660 39.081100 -0.000007 -0.000012 -0.180043 0.440186 22.245600 40.985400 -0.000006 -0.000013 -5.987780 0.986814 -62.865300 11.754300 -0.000000 0.000003 -0.000136 -0.001333 -16.628400 -2.192510 6.469440 -0.000001 174.689000 17.592900 177.958000 -39.081100 -0.002282 -0.040193 0.024778 -0.062449 18.960600 -40.985400 0.000008 0.000006 -1.644030 3.247250 -61.294800 -11.754300 -0.000006 -0.000006 -0.005730 -0.068359 -19.355000
0.000000 0.000000 0.000000 0.000000 0.000000 -0.000000 0.106760 92.183000 -3.312520 87.282900 -3.581840 3.813030 15.735700 0.000005 -0.000001 94.928700 85.145300 -96.706400 8.984550 -0.406207 -0.000000 1.924600 0.924227 -3.567560 16.377300 -0.000001 -0.000001 2.779370 -2.887310 0.641493 6.456720 -0.000001 -0.000000 -3.816200 -2.401350 -2.297170 12.994200 -0.242716 4.980390 -87.833100 -5.930750 -69.887800 5.348090 -0.000007 -0.000001 12.684900 73.163100 -63.009900 24.328600 0.000019 0.000005 17.099200 0.930183 -86.979200 22.291600 -0.000001 0.000005 41.262400 5.547380 -33.657900 12.994500 -0.242716 -4.980390 92.273600 -4.850930 -64.849300 -5.348130 -0.000001 -0.000004 -57.343100 -48.065700 -110.765000 -24.328900 0.000322 -0.000009 1.719530 1.919290 -41.890100 -22.291500 -0.000108 -0.000004 20.896200 5.330080 -0.787831 -2.192480 -6.469440 -0.000000 -168.613000 -17.604100 -3.335790 39.081100 -0.000007 -0.000012 -0.183414 0.449862 22.181600 40.985400 -0.000006 -0.000013 -5.984740 1.132710 -62.780100 11.754300 -0.000000 0.000003 -0.000195 -0.001815 -16.646100 -2.192510 6.469440 -0.000001 174.738000 17.755600 177.956000 -39.081100 -0.002282 -0.040193 0.028399 -0.072964 18.966800 -40.985400 0.000008 0.000006 -1.491200 3.088050 -61.350700 -11.754300 -0.000006 -0.000006 -0.006027 -0.071080 -19.466000
0.000000 0.000000 0.000000 0.000000 0.000000 -0.000000 0.061502 92.190300 -3.308620 87.276800 -3.335750 3.830790 15.735700 0.000005 -0.000001 95.314400 85.101500 -97.106700 8.984550 -0.406207 -0.000000 2.007250 0.996826 -3.598720 16.377300 -0.000001 -0.000001 2.743990 -3.010570 0.814988 6.456720 -0.000001 -0.000000 -3.827580 -2.459530 -2.254180 12.994200 -0.242716 4.980390 -87.816500 -6.010010 -69.990200 5.348090 -0.000007 -0.000001 12.521100 73.202100 -62.941500 24.328600 0.000019 0.000005 17.016800 0.938917 -86.935200 22.291600 -0.000001 0.000005 41.280300 5.545540 -33.743700 12.994500 -0.242716 -4.980390 92.323600 -4.958430 -64.851400 -5.348130 -0.000001 -0.000004 -56.712800 -48.179700 -113.225000 -24.328900 0.000322 -0.000009 2.069540 2.061530 -45.145500 -22.291500 -0.000108 -0.000004 20.933400 5.337420 -1.003130 -2.192480 -6.469440 -0.000000 -168.566000 -17.534800 -3.318340 39.081100 -0.000007 -0.000012 -0.182496 0.449721 22.087400 40.985400 -0.000006 -0.000013 -5.981520 1.357140 -62.697300 11.754300 -0.000000 0.000003 -0.000178 -0.001675 -16.641000 -2.192510 6.469440 -0.000001 174.769000 17.957100 178.005000 -39.081100 -0.002282 -0.040193 0.031888 -0.083081 18.974200 -40.985400 0.000008 0.000006 -1.337730 3.010470 -61.389600 -11.754300 -0.000006 -0.000006 -0.005963 -0.070500 -19.442300
0.000000 0.000000 0.000000 0.000000 0.000000 -0.000000 0.041078 92.193300 -3.326290 87.246400 -3.114500 3.768380 15.735700 0.000005 -0.000001 95.817000 85.082100 -97.592000 8.984550 -0.406207 -0.000000 2.038820 1.084860 -3.566080 16.377300 -0.000001 -0.000001 2.722510 -3.123150 0.950445 6.456720 -0.000001 -0.000000 -3.856330 -2.551720 -2.326920 12.994200 -0.242716 4.980390 -87.814600 -6.064970 -70.141000 5.348090 -0.000007 -0.000001 12.498300 73.275600 -63.017100 24.328600 0.000019 0.000005 17.204100 0.966502 -86.881800 22.291600 -0.000001 0.000005 41.360600 5.550600 -33.506100 12.994500 -0.242716 -4.980390 92.385000 -5.070400 -64.766600 -5.348130 -0.000001 -0.000004 -55.895600 -48.225800 -115.433000 -24.328900 0.000322 -0.000009 2.238730 1.990510 -48.394200 -22.291500 -0.000108 -0.000004 21.087000 5.341870 -1.134480 -2.192480 -6.469440 -0.000000 -168.543000 -17.564300 -3.461160 39.081100 -0.000007 -0.000012 -0.183264 0.451403 22.096800 40.985400 -0.000006 -0.000013 -5.949450 1.560290 -62.635500 11.754300 -0.000000 0.000003 -0.000176 -0.001661 -16.640400 -2.192510 6.469440 -0.000001 174.844000 18.133700 177.956000 -39.081100 -0.002282 -0.040193 0.034944 -0.091877 18.991600 -40.985400 0.000008 0.000006 -1.172300 2.919260 -61.425000 -11.754300 -0.000006 -0.000006 -0.005776 -0.068784 -19.372300
0.000000 0.000000 0.000000 0.000000 0.000000 -0.000000 0.037770 92.191600 -3.331540 87.238700 -2.992440 3.703740 15.735700 0.000005 -0.000001 96.336000 85.071300 -98.098500 8.984550 -0.406207 -0.000000 2.052040 1.174950 -3.542800 16.377300 -0.000001 -0.000001 2.700530 -3.219130 1.072350 6.456720 -0.000001 -0.000000 -3.808090 -2.590840 -2.422070 12.994200 -0.242716 4.980390 -87.814400 -6.082200 -70.190900 5.348090 -0.000007 -0.000001 12.639100 73.270700 -63.193300 24.328600 0.000019 0.000005 17.123000 0.965979 -86.867800 22.291600 -0.000001 0.000005 41.398800 5.550820 -33.495000 12.994500 -0.242716 -4.980390 92.432100 -5.156920 -64.707600 -5.348130 -0.000001 -0.000004 -55.238200 -47.979700 -117.551000 -24.328900 0.000322 -0.000009 2.292470 1.840650 -51.273400 -22.291500 -0.000108 -0.000004 20.990900 5.349320 -1.356940 -2.192480 -6.469440 -0.000000 -168.589000 -17.499100 -3.597960 39.081100 -0.000007 -0.000012 -0.179454 0.440843 22.150100 40.985400 -0.000006 -0.000013 -5.926600 1.572380 -62.643300 11.754300 -0.000000 0.000003 -0.000155 -0.001494 -16.634300 -2.192510 6.469440 -0.000001 174.865000 18.201600 177.914000 -39.081100 -0.002282 -0.040193 0.035573 -0.093801 18.973700 -40.985400 0.000008 0.000006 -1.278920 2.858990 -61.415400 -11.754300 -0.000006 -0.000006 -0.005975 -0.070610 -19.446800
0.000000 0.000000 0.000000 0.000000 0.000000 -0.000000 0.066183 92.207800 -3.324440 87.261400 -2.916520 3.690680 15.735700 0.000005 -0.000001 97.028600 85.038800 -98.782100 8.984550 -0.406207 -0.000000 2.104660 1.299910 -3.527620 16.377300 -0.000001 -0.000001 2.688390 -3.306820 1.173690 6.456720 -0.000001 -0.000000 -3.772780 -2.664200 -2.529750 12.994200 -0.242716 4.980390 -87.818500 -6.088410 -70.243700 5.348090 -0.000007 -0.000001 12.639100 73.159000 -63.236700 24.328600 0.000019 0.000005 16.902500 0.956592 -86.855300 22.291600 -0.000001 0.000005 41.247700 5.546290 -33.709100 12.994500 -0.242716 -4.980390 92.461000 -5.199370 -64.626300 -5.348130 -0.000001 -0.000004 -54.790000 -47.552200 -119.440000 -24.328900 0.000322 -0.000009 2.484540 1.831620 -53.637700 -22.291500 -0.000108 -0.000004 20.918200 5.357370 -1.599810 -2.192480 -6.469440 -0.000000 -168.653000 -17.481100 -3.584840 39.081100 -0.000007 -0.000012 -0.177121 0.437285 22.050500 40.985400 -0.000006 -0.000013 -5.896020 1.572220 -62.589400 11.754300 -0.000000 0.000003 -0.000167 -0.001593 -16.637900 -2.192510 6.469440 -0.000001 174.829000 18.253600 177.937000 -39.081100 -0.002282 -0.040193 0.036122 -0.095756 18.907600 -40.985400 0.000008 0.000006 -1.260890 2.801720 -61.334300 -11.754300 -0.000006 -0.000006 -0.005846 -0.069428 -19.398600
